<?xml version="1.0" standalone="no"?>
<svg xmlns="http://www.w3.org/2000/svg" viewBox="0 0 119 29" width="119" height="29"><path fill="#01427c" fill-rule="nonzero" d="M6.98 8.40Q8.45 8.81 9.12 9.82Q9.79 10.82 9.79 12.10L9.79 12.10Q9.79 13.80 8.74 14.92Q7.68 16.03 5.14 16.03L5.14 16.03L0 16.03L0 1.32L4.44 1.32Q6.94 1.32 8.03 2.35Q9.12 3.38 9.12 5.09L9.12 5.09Q9.12 6.19 8.63 7.07Q8.14 7.94 6.98 8.40L6.98 8.40ZM2.45 2.23L2.45 8.04L4.27 8.04Q5.57 8.04 6.12 7.24Q6.67 6.43 6.67 5.11L6.67 5.11Q6.67 3.70 6.07 2.96Q5.47 2.23 4.27 2.23L4.27 2.23L2.45 2.23ZM4.90 15.12Q7.34 15.12 7.34 12.10L7.34 12.10Q7.34 10.78 6.72 9.86Q6.10 8.95 4.90 8.95L4.90 8.95L2.45 8.95L2.45 15.12L4.90 15.12ZM14.88 16.32Q13.42 16.32 12.56 15.52Q11.71 14.71 11.71 13.32L11.71 13.32Q11.71 11.83 12.78 10.98Q13.85 10.13 16.03 9.74L16.03 9.74L18.70 9.31L18.70 8.14Q18.70 5.42 16.63 5.42L16.63 5.42Q15.41 5.42 14.86 6.12Q14.30 6.82 14.23 8.26L14.23 8.26L12.22 8.04Q12.36 6.14 13.37 5.18Q14.38 4.22 16.68 4.22L16.68 4.22Q18.91 4.22 20.02 5.22Q21.12 6.22 21.12 8.23L21.12 8.23L21.12 16.03L19.58 16.03L18.84 14.35Q18.10 15.31 17.06 15.82Q16.03 16.32 14.88 16.32L14.88 16.32ZM15.74 15.05Q16.56 15.05 17.36 14.57Q18.17 14.09 18.70 13.44L18.70 13.44L18.70 10.30L16.34 10.75Q15.14 11.02 14.53 11.59Q13.92 12.17 13.92 13.15L13.92 13.15Q13.92 14.02 14.41 14.53Q14.90 15.05 15.74 15.05L15.74 15.05ZM30.74 4.22Q34.44 4.22 34.44 7.90L34.44 7.90L34.44 16.03L32.02 16.03L32.02 8.09Q32.02 6.79 31.56 6.18Q31.10 5.57 30.12 5.57L30.12 5.57Q28.66 5.57 27.24 6.67L27.24 6.67L27.24 16.03L24.82 16.03L24.82 4.51L25.87 4.51L26.83 5.71Q27.70 5.04 28.74 4.63Q29.78 4.22 30.74 4.22L30.74 4.22ZM47.57 16.03L44.95 16.03L41.40 10.68L40.56 11.59L40.56 16.03L38.14 16.03L38.14 0.82L40.56 0.50L40.56 10.13L45.82 4.51L47.21 4.51L42.89 9.10L47.57 16.03ZM50.95 3Q50.33 3 49.90 2.56Q49.46 2.11 49.46 1.51L49.46 1.51Q49.46 0.89 49.90 0.44Q50.33 0 50.95 0L50.95 0Q51.58 0 52.02 0.44Q52.46 0.89 52.46 1.51L52.46 1.51Q52.46 2.11 52.01 2.56Q51.55 3 50.95 3L50.95 3ZM52.10 4.51L52.10 16.03L49.73 16.03L49.73 4.51L52.10 4.51ZM60 0.19Q60.77 0.19 61.46 0.42Q62.16 0.65 62.88 1.08L62.88 1.08L62.06 2.83Q61.70 2.28 61.20 1.94Q60.70 1.61 60.17 1.61L60.17 1.61Q59.50 1.61 59.12 2.05Q58.75 2.50 58.75 3.24L58.75 3.24L58.75 4.51L61.18 4.51L61.18 5.74L58.75 5.74L58.75 16.03L56.33 16.03L56.33 5.74L54.46 5.74L54.46 4.51L56.33 4.51L56.33 3.89Q56.33 2.06 57.28 1.13Q58.22 0.19 60 0.19L60 0.19ZM70.54 4.51L71.93 4.51L66.05 20.90L64.08 20.62L66.31 16.49L61.32 4.51L63.74 4.51L67.42 13.61L70.54 4.51Z" transform="translate(0, 4.048)"></path><line x1="80.928" y1="2%" x2="80.928" y2="98%" stroke="#01427c" stroke-linecap="round"></line><g fill="#f29b18" color="#f29b18" transform="translate(89.928 0) scale(0.29)"><svg width="100.0" height="100.0" x="0.0" y="0.0" viewBox="0 0 100 100"><rect fill="none" width="100" height="100"></rect><g><path d="M55.186,31.942c0.735,0,1.469-0.298,2-0.885l16.559-18.309l16.561,18.304c1,1.101,2.702,1.197,3.808,0.19   c1.104-0.998,1.19-2.702,0.19-3.805L75.744,6.921c-1.024-1.13-2.977-1.13-3.998,0L53.188,27.439c-1,1.103-0.913,2.81,0.189,3.805   C53.895,31.713,54.538,31.942,55.186,31.942z"></path><path d="M75.744,25.345c-1.024-1.134-2.977-1.134-3.998,0L53.188,45.861c-1,1.104-0.913,2.808,0.189,3.808   c0.518,0.466,1.161,0.697,1.809,0.697c0.735,0,1.469-0.3,2-0.89l16.559-18.308l16.561,18.308c1,1.099,2.702,1.192,3.808,0.188   c1.104-0.995,1.19-2.702,0.19-3.805L75.744,25.345z"></path><path d="M46.579,52.19c-0.077,0-0.149,0.007-0.224,0.007V17.172c0-6.027-9.084-10.75-20.681-10.75C14.083,6.421,5,11.145,5,17.172   v58.342c0,6.026,9.083,10.748,20.674,10.748c0.36,0,0.704-0.026,1.058-0.036c2.469,4.495,10.301,7.7,19.847,7.7   c11.597,0,20.681-4.722,20.681-10.748V62.94C67.26,56.914,58.176,52.19,46.579,52.19z M64.563,62.94   c0,3.893-7.226,8.056-17.983,8.056c-10.753,0-17.979-4.163-17.979-8.056c0-3.887,7.227-8.051,17.979-8.051   C57.337,54.89,64.563,59.054,64.563,62.94z M64.563,68.328v5.447c0,3.89-7.226,8.054-17.983,8.054   c-10.753,0-17.979-4.164-17.979-8.054v-5.447c0.072,0.063,0.166,0.12,0.241,0.188c0.313,0.274,0.644,0.538,1.002,0.791   c0.139,0.099,0.279,0.199,0.428,0.298c0.43,0.286,0.885,0.565,1.368,0.824c0.07,0.036,0.132,0.08,0.202,0.116   c0.56,0.293,1.156,0.567,1.779,0.819c0.171,0.074,0.349,0.137,0.522,0.207c0.485,0.185,0.983,0.362,1.502,0.526   c0.199,0.063,0.399,0.13,0.605,0.189c0.649,0.188,1.317,0.368,2.007,0.522c0.058,0.014,0.108,0.028,0.164,0.04   c0.75,0.164,1.526,0.294,2.317,0.416c0.224,0.031,0.457,0.056,0.683,0.089c0.606,0.075,1.219,0.143,1.844,0.19   C43.509,73.563,43.75,73.586,44,73.6c0.846,0.056,1.702,0.092,2.58,0.092s1.735-0.036,2.582-0.092   c0.248-0.014,0.491-0.036,0.736-0.055c0.625-0.048,1.238-0.115,1.842-0.19c0.228-0.033,0.459-0.058,0.685-0.089   c0.791-0.122,1.567-0.252,2.315-0.416c0.058-0.012,0.107-0.026,0.163-0.04c0.695-0.154,1.36-0.335,2.01-0.522   c0.207-0.06,0.406-0.127,0.608-0.189c0.517-0.164,1.017-0.342,1.5-0.526c0.176-0.07,0.354-0.133,0.521-0.207   c0.623-0.252,1.222-0.526,1.779-0.819c0.072-0.036,0.135-0.08,0.206-0.116c0.483-0.264,0.936-0.538,1.363-0.824   c0.151-0.099,0.291-0.199,0.436-0.298c0.351-0.253,0.683-0.517,0.992-0.786C64.395,68.453,64.491,68.396,64.563,68.328z    M43.482,52.32c0.056-0.051,0.123-0.094,0.178-0.142v0.125C43.601,52.309,43.543,52.313,43.482,52.32z M25.674,9.119   c10.76,0,17.986,4.164,17.986,8.053s-7.227,8.053-17.986,8.053c-10.753,0-17.979-4.164-17.979-8.053S14.921,9.119,25.674,9.119z    M7.695,22.557c0.072,0.067,0.166,0.125,0.241,0.19c0.313,0.272,0.646,0.536,1.002,0.791c0.142,0.101,0.281,0.202,0.428,0.303   c0.43,0.284,0.885,0.558,1.368,0.82c0.07,0.036,0.132,0.08,0.205,0.116c0.558,0.291,1.156,0.565,1.779,0.819   c0.168,0.072,0.346,0.135,0.521,0.205c0.483,0.185,0.983,0.363,1.498,0.529c0.202,0.065,0.404,0.13,0.608,0.19   c0.651,0.192,1.317,0.365,2.01,0.521c0.058,0.012,0.108,0.026,0.164,0.041c0.748,0.161,1.524,0.293,2.315,0.414   c0.226,0.034,0.457,0.058,0.685,0.091c0.604,0.074,1.216,0.139,1.841,0.19c0.246,0.019,0.488,0.041,0.736,0.055   c0.846,0.053,1.702,0.091,2.58,0.091c0.88,0,1.738-0.039,2.582-0.091c0.25-0.015,0.491-0.036,0.736-0.055   c0.625-0.051,1.24-0.116,1.844-0.19c0.229-0.034,0.459-0.058,0.683-0.091c0.791-0.12,1.57-0.252,2.317-0.414   c0.056-0.015,0.106-0.029,0.161-0.041c0.695-0.156,1.361-0.334,2.012-0.521c0.204-0.06,0.406-0.125,0.608-0.19   c0.514-0.166,1.014-0.344,1.5-0.529c0.173-0.07,0.351-0.132,0.521-0.2c0.62-0.259,1.219-0.534,1.779-0.824   c0.072-0.036,0.135-0.08,0.205-0.118c0.483-0.259,0.938-0.534,1.365-0.817c0.149-0.101,0.289-0.202,0.433-0.303   c0.354-0.255,0.683-0.519,0.993-0.786c0.077-0.065,0.173-0.127,0.248-0.195v5.452c0,3.89-7.227,8.053-17.986,8.053   c-10.753,0-17.979-4.164-17.979-8.053V22.557z M7.695,33.375c3.524,3.236,10.176,5.382,17.979,5.382   c7.808,0,14.462-2.146,17.986-5.382v4.034c0,3.89-7.227,8.056-17.986,8.056c-10.753,0-17.979-4.166-17.979-8.056V33.375z    M7.695,42.776c3.524,3.238,10.176,5.382,17.979,5.382c7.808,0,14.462-2.144,17.986-5.382v4.036c0,3.89-7.227,8.054-17.986,8.054   c-10.753,0-17.979-4.164-17.979-8.054V42.776z M7.695,52.179c3.524,3.237,10.176,5.385,17.979,5.385   c1.05,0,2.077-0.049,3.079-0.123c-1.803,1.599-2.849,3.477-2.849,5.5v1.322c-0.079,0-0.151,0.005-0.23,0.005   c-10.753,0-17.979-4.163-17.979-8.053V52.179z M7.695,61.578c3.524,3.238,10.176,5.387,17.979,5.387c0.079,0,0.151-0.01,0.23-0.01   v6.705c-0.079,0-0.151,0.01-0.23,0.01c-10.753,0-17.979-4.164-17.979-8.056V61.578z M25.674,83.566   c-10.753,0-17.979-4.163-17.979-8.053v-4.534c3.524,3.238,10.176,5.388,17.979,5.388c0.079,0,0.154-0.005,0.23-0.013v6.823   c0,0.132,0.026,0.257,0.036,0.384C25.85,83.562,25.766,83.566,25.674,83.566z M46.579,91.23c-10.753,0-17.979-4.163-17.979-8.053   v-4.032c3.524,3.236,10.176,5.381,17.979,5.381c7.808,0,14.462-2.145,17.983-5.381v4.032C64.563,87.067,57.337,91.23,46.579,91.23z   "></path></g></svg></g></svg>