<svg xmlns="http://www.w3.org/2000/svg" xmlns:xlink="http://www.w3.org/1999/xlink" version="1.1" x="0px" y="0px" viewBox="120 -320 1200 1500" style="enable-background:new 120 -320 1200 1200;" xml:space="preserve"><g><path d="M349.3,641.7c-3.9,0-7.8-0.9-11.5-2.6c-29.7-13.5-52.2-78.2-52.2-156s22.5-142.6,52.2-156   c3.7-1.7,7.6-2.6,11.5-2.6h819.9c12.9,0,23.4-11.4,23.4-24.3c0-12.9-10.5-23.4-23.4-23.4H344.3c-28.1,0-54.3,23.9-73.9,67.4   c-17.6,39.1-27.3,88.5-27.3,139c0,50.5,9.7,99.8,27.3,139c19.6,43.4,45.8,67.4,73.9,67.4h29.9v71.7c0,2.4,1.5,4.6,3.8,5.5   c0.7,0.3,1.4,0.4,2.1,0.4c1.6,0,3.3-0.7,4.4-2l66.1-74.9l66.1,74.9c1.6,1.8,4.2,2.5,6.5,1.6s3.8-3,3.8-5.5v-71.7h642.4   c12.9,0,23.4-10.5,23.4-23.4s-10.5-24.3-23.4-24.3H526.8v-11.7h623c-6.1-8.1-11.7-18.3-16.5-30.4c-12.6-31.3-19.5-72.7-19.5-116.5   s6.9-85.2,19.5-116.5c4.8-12.1,10.4-22.2,16.5-30.4H349.3c-11.6,0-24.3,14.6-34.2,39.1c-11.5,28.6-17.8,66.9-17.8,107.8   s6.3,79.2,17.8,107.8c9.8,24.5,22.6,39.1,34.2,39.1h24.9v11.7h-24.9V641.7z M1034.8,483.1c0,3.2-2.6,5.9-5.9,5.9H860.3   c-3.2,0-5.9-2.6-5.9-5.9c0-3.2,2.6-5.9,5.9-5.9H1029C1032.2,477.3,1034.8,479.9,1034.8,483.1z M440,419.3h437   c3.2,0,5.9,2.6,5.9,5.9c0,3.2-2.6,5.9-5.9,5.9H440c-3.2,0-5.9-2.6-5.9-5.9S436.7,419.3,440,419.3z M342.5,489   c-3.2,0-5.9-2.6-5.9-5.9c0-3.2,2.6-5.9,5.9-5.9h440.7c3.2,0,5.9,2.6,5.9,5.9c0,3.2-2.6,5.9-5.9,5.9H515.1v256.7l-49.6-56.2   l-10.6-12c-1.1-1.3-2.7-2-4.4-2c-1.7,0-3.3,0.7-4.4,2l-10.6,12l-49.6,56.2V630V489H342.5L342.5,489z"/><polygon points="726.6,125.7 720,127.7 713.4,125.7 464.5,52.5 464.5,252.5 975.5,252.5 975.5,52.5  "/><path d="M1226.8,64.5c0-17.2-11.2-31.7-26.7-36.6v-66l47.2-13.9L720-207.2L192.7-52l262.4,77.2l4.7,1.4l4.7,1.4   L720,103.2L975.5,28l4.7-1.4l4.7-1.4l191.8-56.5v59.2c-15.5,5-26.7,19.5-26.7,36.6c0,17.7,12,32.6,28.3,37.1l-22.8,101.7l71.4,61.6   l-24.6-164.5C1216.6,94.8,1226.8,80.9,1226.8,64.5z"/></g><text x="120" y="895" fill="#000000" font-size="5px" font-weight="bold" font-family="'Helvetica Neue', Helvetica, Arial-Unicode, Arial, Sans-serif">Created by Icon Factory</text><text x="120" y="900" fill="#000000" font-size="5px" font-weight="bold" font-family="'Helvetica Neue', Helvetica, Arial-Unicode, Arial, Sans-serif">from the Noun Project</text></svg>