<?xml version="1.0" standalone="no"?>
<svg xmlns="http://www.w3.org/2000/svg" viewBox="0 0 63 78" width="63" height="78"><g fill="#ff5576" color="#ff5576" transform="translate(9.44 0) scale(0.44) "><svg width="100.0" height="100.0" x="0.0" y="0.0" viewBox="0 0 100 100"><path d="M72.232,35.262c0,12.623-10.223,22.854-22.841,22.854c-12.623,0-22.857-10.23-22.857-22.854  c0-12.614,10.235-22.849,22.857-22.849C62.01,12.413,72.232,22.648,72.232,35.262L72.232,35.262z M26.269,46.209l23.123,48.857  l23.124-48.857c6.035-12.77,0.59-28.025-12.181-34.071c-12.774-6.041-28.029-0.59-34.066,12.185  C22.982,31.246,22.982,39.283,26.269,46.209z"></path><path d="M66.904,38.144c0,3.345-2.718,6.062-6.072,6.062c-3.35,0-6.066-2.717-6.066-6.062c0-3.354,2.717-6.067,6.066-6.067  C64.187,32.077,66.904,34.79,66.904,38.144L66.904,38.144z M68.49,38.144c0-4.232-3.43-7.662-7.658-7.662  c-4.227,0-7.66,3.43-7.66,7.662c0,4.231,3.434,7.657,7.66,7.657C65.061,45.801,68.49,42.375,68.49,38.144L68.49,38.144z"></path><path d="M44.835,38.144c0,3.345-2.717,6.062-6.058,6.062c-3.354,0-6.071-2.717-6.071-6.062c0-3.354,2.717-6.067,6.071-6.067  C42.119,32.077,44.835,34.79,44.835,38.144L44.835,38.144z M46.422,38.144c0-4.232-3.426-7.662-7.645-7.662  c-4.24,0-7.666,3.43-7.666,7.662c0,4.231,3.426,7.657,7.666,7.657C42.996,45.801,46.422,42.375,46.422,38.144L46.422,38.144z"></path><g><path d="M44.055,37.435h-4.746l0.649-4.489c-0.312-0.075-0.637-0.118-0.961-0.135l-0.811,5.599h5.906   C44.114,38.084,44.097,37.76,44.055,37.435z"></path></g><path d="M50.684,38.409h-3.528c0.008-0.325,0.008-0.649-0.025-0.975h1.464L46.54,34.98c-0.663-1.625-1.814-3-3.299-3.941l-2.56-3.05  l-0.283,1.924c-0.316-0.063-0.633-0.11-0.957-0.136l0.401-2.792l-2.067-2.464h-1.772c-0.65,0-1.181-0.531-1.181-1.185  s0.531-1.186,1.181-1.186h3.505c0.654,0,1.186,0.532,1.186,1.186s-0.532,1.185-1.186,1.185h-0.468l1.864,2.211h10.218l-1.198-1.426  c-0.325-0.392-0.51-0.886-0.51-1.392c0-1.194,0.966-2.16,2.163-2.16h5.168c1.229,0,2.232,0.995,2.232,2.223  c0,1.237-1.004,2.232-2.232,2.232v-0.974c0.697,0,1.254-0.562,1.254-1.258c0-0.687-0.557-1.252-1.254-1.252h-5.168  c-0.658,0-1.188,0.536-1.188,1.189c0,0.278,0.097,0.553,0.274,0.768l5.463,6.514c-0.266,0.181-0.523,0.379-0.768,0.59l-3.16-3.763  L50.684,38.409 M41.714,27.703l8.133,9.707l1.413-9.707H41.714z"></path><g><path d="M58.104,33.558l3.544,4.228L60.9,38.409l-3.577-4.277C57.562,33.917,57.82,33.727,58.104,33.558z"></path></g></svg></g><path fill="#0b0cac" fill-rule="nonzero" d="M4.15 21.67L0 21.67L0 1.06L8.26 1.06L8.26 5.06L4.15 5.06L4.15 8.35L8.04 8.35L8.04 12.31L4.15 12.31L4.15 21.67ZM13.68 2.93L9.48 2.93L9.48 0L13.68 0L13.68 2.93ZM13.68 21.67L9.48 21.67L9.48 4.10L13.68 4.10L13.68 21.67ZM18.96 21.86Q17.30 21.86 16.68 21.17Q16.06 20.47 16.06 18.94L16.06 18.94L16.06 7.97L14.88 7.97L14.88 4.78L16.06 4.78L16.06 1.06L20.14 1.06L20.14 4.78L21.34 4.78L21.34 7.97L20.14 7.97L20.14 17.83Q20.14 18.29 20.21 18.50Q20.28 18.72 20.59 18.72L20.59 18.72Q20.83 18.72 21.05 18.70Q21.26 18.67 21.34 18.67L21.34 18.67L21.34 21.55Q20.98 21.65 20.29 21.76Q19.61 21.86 18.96 21.86L18.96 21.86ZM22.66 21.67L22.66 4.10L26.76 4.10L26.76 6.14Q27.05 5.02 27.74 4.46Q28.44 3.91 29.71 3.91L29.71 3.91Q30.74 3.91 31.50 4.38Q32.26 4.85 32.57 5.66L32.57 5.66Q33.10 4.75 33.74 4.33Q34.39 3.91 35.54 3.91L35.54 3.91Q37.61 3.91 38.41 5.17Q39.22 6.43 39.22 8.83L39.22 8.83L39.17 21.67L34.94 21.67L34.94 8.76Q34.94 7.06 34.08 7.06L34.08 7.06Q33.48 7.06 33.22 7.64Q32.95 8.23 32.95 9.05L32.95 9.05L32.95 21.67L28.75 21.67L28.75 8.76Q28.75 8.02 28.60 7.56Q28.44 7.10 27.94 7.10L27.94 7.10Q27.29 7.10 27.02 7.74Q26.76 8.38 26.76 9.26L26.76 9.26L26.76 21.67L22.66 21.67ZM44.04 21.86Q42.00 21.86 41.24 20.51Q40.49 19.15 40.49 16.63L40.49 16.63Q40.49 14.57 41.03 13.46Q41.57 12.36 42.53 11.84Q43.49 11.33 45.46 10.70L45.46 10.70L46.61 10.32L46.61 10.27L46.61 8.52Q46.61 7.82 46.33 7.45Q46.06 7.08 45.67 7.08L45.67 7.08Q45.34 7.08 45.08 7.39Q44.83 7.70 44.83 8.23L44.83 8.23L44.83 9.29L40.75 9.29L40.75 8.71Q40.75 6.12 41.96 5.02Q43.18 3.91 45.91 3.91L45.91 3.91Q48.10 3.91 49.46 5.05Q50.83 6.19 50.83 8.28L50.83 8.28L50.83 21.67L46.66 21.67L46.66 19.58Q46.34 20.66 45.66 21.26Q44.98 21.86 44.04 21.86L44.04 21.86ZM45.70 18.60Q46.18 18.60 46.38 18.20Q46.58 17.81 46.58 17.23L46.58 17.23L46.58 12.34Q45.65 12.70 45.20 13.25Q44.76 13.80 44.76 14.78L44.76 14.78L44.76 17.04Q44.76 18.60 45.70 18.60L45.70 18.60ZM52.44 25.18L52.44 4.10L56.71 4.10L56.71 5.04Q57.62 3.91 59.23 3.91L59.23 3.91Q61.27 3.91 62.08 5.28Q62.88 6.65 62.88 9.07L62.88 9.07L62.88 15.58Q62.88 17.64 62.64 18.95Q62.40 20.26 61.58 21.06Q60.77 21.86 59.11 21.86L59.11 21.86Q57.53 21.86 56.71 20.98L56.71 20.98L56.71 25.18L52.44 25.18ZM57.72 18.60Q58.30 18.60 58.46 18.07Q58.63 17.54 58.63 16.54L58.63 16.54L58.63 9.07Q58.63 8.16 58.46 7.68Q58.30 7.20 57.70 7.20L57.70 7.20Q56.71 7.20 56.71 9.02L56.71 9.02L56.71 16.73Q56.71 17.62 56.92 18.11Q57.12 18.60 57.72 18.60L57.72 18.60Z" transform="translate(0, 52)"></path></svg>